<svg
  width="2048"
  height="1024"
  viewBox="0 0 2048 1024"
  xmlns="http://www.w3.org/2000/svg"
>
  <rect width="2048" height="1024" fill="#000" />
  <g fill="#fff">
    <path d="M170 270 L380 210 L520 260 L600 220 L700 290 L690 380 L610 420 L520 400 L430 440 L320 420 L240 360 Z" />
    <path d="M520 470 L640 520 L700 610 L660 710 L590 770 L520 740 L500 640 L480 560 Z" />
    <path d="M780 210 L980 180 L1180 210 L1320 190 L1480 240 L1630 220 L1750 260 L1820 330 L1720 380 L1560 360 L1380 390 L1220 360 L1080 380 L930 350 L820 310 Z" />
    <path d="M1000 410 L1120 420 L1200 470 L1210 570 L1150 670 L1050 720 L960 670 L930 560 L950 470 Z" />
    <path d="M1480 640 L1600 640 L1710 700 L1700 800 L1580 820 L1480 760 Z" />
    <path d="M0 920 L2048 920 L2048 1024 L0 1024 Z" />
  </g>
</svg>
